<?xml version="1.0" standalone="no"?>
<!DOCTYPE svg PUBLIC "-//W3C//DTD SVG 20010904//EN"
 "http://www.w3.org/TR/2001/REC-SVG-20010904/DTD/svg10.dtd">
<svg version="1.0" xmlns="http://www.w3.org/2000/svg"
 width="395.000000pt" height="273.000000pt" viewBox="0 0 395.000000 273.000000"
 preserveAspectRatio="xMidYMid meet">

<g transform="translate(0.000000,273.000000) scale(0.100000,-0.100000)"
fill="#000000" stroke="none">
<path d="M927 2360 l-127 -150 -130 -865 c-72 -476 -130 -872 -130 -880 0 -13
32 -15 215 -15 118 0 215 1 215 3 0 6 300 2003 304 2030 l6 27 -113 0 -112 -1
-128 -149z"/>
<path d="M1848 2494 c-122 -29 -223 -109 -276 -217 -40 -81 -54 -155 -157
-851 -104 -698 -106 -743 -32 -853 42 -62 113 -99 224 -115 45 -7 85 -9 89 -5
4 4 15 64 26 134 10 71 43 290 73 488 30 198 88 587 130 865 41 278 78 520 81
538 l6 32 -53 -1 c-30 0 -80 -7 -111 -15z"/>
<path d="M2116 2484 c-3 -16 -51 -330 -106 -699 -55 -369 -122 -818 -149
-1000 -28 -181 -48 -332 -45 -334 9 -10 172 18 227 39 66 25 155 101 194 167
14 24 34 71 44 103 10 33 62 347 115 698 108 712 115 787 74 880 -44 101 -136
158 -276 169 l-72 6 -6 -29z"/>
<path d="M3477 2360 l-127 -150 -130 -865 c-72 -476 -130 -872 -130 -880 0
-13 32 -15 215 -15 118 0 215 1 215 3 0 6 300 2003 304 2030 l6 27 -113 0
-112 -1 -128 -149z"/>
<path d="M416 1754 c-132 -157 -247 -296 -257 -308 -13 -16 -27 -82 -49 -222
-16 -109 -30 -206 -30 -216 0 -17 15 -18 214 -18 l214 0 11 73 c86 568 141
953 139 964 -2 7 -111 -115 -242 -273z"/>
<path d="M2966 1754 c-132 -157 -247 -296 -257 -308 -13 -16 -27 -82 -49 -222
-16 -109 -30 -206 -30 -216 0 -17 15 -18 214 -18 l214 0 11 73 c86 568 141
953 139 964 -2 7 -111 -115 -242 -273z"/>
</g>
</svg>
