<?xml version="1.0" standalone="no"?>
<!DOCTYPE svg PUBLIC "-//W3C//DTD SVG 20010904//EN"
 "http://www.w3.org/TR/2001/REC-SVG-20010904/DTD/svg10.dtd">
<svg version="1.0" xmlns="http://www.w3.org/2000/svg"
 width="329.000000pt" height="129.000000pt" viewBox="0 0 329.000000 129.000000"
 preserveAspectRatio="xMidYMid meet">

<g transform="translate(0.000000,129.000000) scale(0.100000,-0.100000)"
fill="#000000" stroke="none" >
<path d="M365 1148 c-5 -22 -125 -821 -125 -833 0 -3 42 -4 93 -3 l92 3 62
410 c34 226 62 418 62 428 1 15 -10 17 -89 17 -85 0 -90 -1 -95 -22z"/>
<path d="M2237 1140 c-4 -16 -9 -59 -13 -95 l-7 -65 92 0 c50 0 91 3 91 8 0 4
6 46 14 95 l13 87 -92 0 -92 0 -6 -30z"/>
<path d="M3138 1071 c-48 -14 -89 -29 -92 -31 -3 -3 -28 -158 -55 -345 -28
-187 -53 -350 -56 -363 -5 -22 -4 -22 88 -22 l94 0 16 103 c9 56 24 157 33
225 l18 122 42 0 41 0 7 53 c4 28 10 69 13 90 l6 37 -43 0 c-31 0 -41 4 -37
13 6 17 21 147 16 146 -2 0 -43 -13 -91 -28z"/>
<path d="M200 933 c-35 -13 -72 -47 -90 -83 -25 -49 -73 -356 -67 -424 4 -40
11 -55 35 -77 27 -24 106 -48 118 -36 5 5 93 579 94 610 0 13 -8 17 -37 16
-21 0 -45 -3 -53 -6z"/>
<path d="M635 918 c-9 -40 -85 -563 -85 -586 0 -21 4 -22 90 -22 50 0 90 2 90
5 0 3 20 140 45 305 25 165 45 304 45 310 0 6 -36 10 -90 10 -85 0 -90 -1 -95
-22z"/>
<path d="M860 934 c0 -5 -9 -67 -20 -138 -30 -192 -36 -176 69 -176 104 0 96
-11 107 151 l7 96 -30 33 c-24 27 -38 33 -81 38 -29 2 -52 1 -52 -4z"/>
<path d="M1155 918 c-3 -13 -30 -189 -60 -393 -30 -203 -57 -385 -60 -402 l-6
-33 93 0 94 0 58 393 c32 215 61 407 64 425 l5 32 -92 0 c-86 0 -91 -1 -96
-22z"/>
<path d="M1380 936 c0 -4 -20 -141 -45 -304 -25 -163 -45 -302 -45 -310 0 -20
71 -8 121 20 58 32 76 77 104 255 34 214 33 263 -3 304 -23 26 -38 33 -80 37
-29 2 -52 1 -52 -2z"/>
<path d="M1675 918 c-9 -40 -85 -563 -85 -586 0 -21 4 -22 90 -22 50 0 90 2
90 5 0 3 20 140 45 305 25 165 45 304 45 310 0 6 -36 10 -90 10 -85 0 -90 -1
-95 -22z"/>
<path d="M1900 934 c0 -5 -9 -67 -20 -138 -30 -192 -36 -176 69 -176 104 0 96
-11 107 151 l7 96 -30 33 c-24 27 -38 33 -81 38 -29 2 -52 1 -52 -4z"/>
<path d="M2205 928 c-2 -7 -22 -141 -45 -298 -23 -157 -44 -293 -46 -302 -5
-16 4 -18 90 -18 53 0 96 4 96 8 0 4 20 142 45 305 25 164 45 302 45 307 0 16
-180 13 -185 -2z"/>
<path d="M2495 918 c-9 -40 -85 -563 -85 -586 0 -21 4 -22 90 -22 50 0 90 2
90 5 0 3 20 140 45 305 25 165 45 304 45 310 0 6 -36 10 -90 10 -85 0 -90 -1
-95 -22z"/>
<path d="M2720 936 c0 -3 -20 -141 -45 -306 -25 -165 -45 -304 -45 -310 0 -6
36 -10 90 -10 85 0 90 1 95 23 15 63 65 434 65 481 0 47 -4 61 -28 87 -23 26
-38 33 -80 37 -29 2 -52 2 -52 -2z"/>
</g>
</svg>
